# xmcd
#
# Track frame offsets:
#	150
#	21008
#	49752
#	60626
#	70758
#	93242
#	131447
#	145074
#	176433
#
# Disc length: 2532 seconds
#
# Revision: 1
# Processed by: cddbd v1.5.1PL0 Copyright (c) Steve Scherf et al.
# Submitted via: audiograbber 1.80
#
DISCID=7109e209
DTITLE=Laurie Anderson - Big Science
DYEAR=1900
DGENRE=
TTITLE0=From The Air
TTITLE1=Big Science
TTITLE2=Sweaters
TTITLE3=Walking and Falling
TTITLE4=Born, Never Asked
TTITLE5=O Superman
TTITLE6=Example 22
TTITLE7=Let X =X
TTITLE8=It Tango
EXTD=
EXTT0=
EXTT1=
EXTT2=
EXTT3=
EXTT4=
EXTT5=
EXTT6=
EXTT7=
EXTT8=
PLAYORDER=
